<?xml version="1.0" standalone="no"?>
<!DOCTYPE svg PUBLIC "-//W3C//DTD SVG 20010904//EN"
 "http://www.w3.org/TR/2001/REC-SVG-20010904/DTD/svg10.dtd">
<svg version="1.0" xmlns="http://www.w3.org/2000/svg"
 width="700.000000pt" height="700.000000pt" viewBox="0 0 700.000000 700.000000"
 preserveAspectRatio="xMidYMid meet">
<metadata>
Created by potrace 1.11, written by Peter Selinger 2001-2013
</metadata>
<g transform="translate(0.000000,700.000000) scale(0.100000,-0.100000)"
fill="#000000" stroke="none">
<path d="M2438 6566 c-1 -2 -37 -6 -78 -10 -128 -10 -223 -37 -345 -98 -390
-193 -596 -650 -474 -1050 10 -35 19 -65 19 -68 0 -3 -127 -5 -282 -5 -391 0
-450 -7 -579 -72 -160 -81 -288 -246 -323 -414 -20 -99 -19 -3824 1 -3924 48
-236 251 -430 496 -476 46 -8 724 -11 2607 -11 1400 -1 2570 2 2601 6 236 28
460 213 520 431 6 22 14 49 17 60 10 35 11 3817 1 3870 -5 28 -11 59 -13 70
-17 84 -93 212 -169 282 -90 83 -204 141 -322 164 -27 5 -192 10 -366 10
l-317 -1 19 73 c110 426 -87 855 -486 1054 -131 66 -265 96 -420 96 -163 0
-293 -31 -438 -104 -149 -74 -233 -153 -410 -379 -73 -93 -199 -250 -202 -250
-3 0 -52 62 -222 281 -134 171 -138 176 -222 247 -135 113 -333 194 -509 208
-43 3 -82 7 -89 9 -6 2 -13 2 -15 1z m114 -632 c70 -23 120 -67 208 -184 14
-18 91 -118 172 -221 81 -104 144 -190 140 -192 -13 -7 -606 0 -662 7 -168 23
-284 161 -274 325 4 66 35 136 82 184 51 53 89 75 158 90 67 15 108 13 176 -9z
m2123 -18 c157 -71 225 -267 143 -415 -26 -47 -64 -88 -108 -116 -74 -47 -95
-49 -457 -49 l-342 -1 16 25 c15 23 68 90 300 382 51 64 108 128 126 142 89
68 215 80 322 32z m-2058 -1200 c4 -4 -79 -113 -262 -341 -22 -28 -52 -66 -67
-85 -15 -19 -63 -81 -107 -137 -45 -56 -81 -105 -81 -108 0 -6 81 2 200 20 14
2 45 6 70 9 25 3 71 8 103 12 45 5 57 3 58 -7 0 -8 2 -23 4 -34 4 -19 7 -37
20 -145 3 -25 8 -56 10 -70 9 -60 19 -146 17 -153 -6 -21 25 12 98 106 102
132 357 456 378 482 10 11 41 50 70 88 30 37 54 67 55 67 2 0 1 -388 -5 -2267
-3 -1095 -3 -1103 -23 -1104 -67 -3 -2142 -4 -2152 -1 -10 3 -13 379 -13 1837
l0 1834 43 3 c71 5 1578 0 1584 -6z m3379 1 c9 -9 4 -3661 -5 -3666 -5 -3
-499 -6 -1098 -5 l-1088 0 2 890 c1 489 2 1241 3 1672 0 431 4 781 9 778 4 -3
28 -31 52 -63 23 -32 48 -62 54 -68 6 -5 33 -39 59 -75 70 -93 110 -144 117
-150 3 -3 25 -32 50 -65 24 -33 49 -64 55 -70 5 -5 48 -61 95 -123 l84 -112 7
37 c4 21 10 61 13 88 3 28 8 57 10 65 2 8 7 38 10 65 3 28 7 61 9 75 3 14 7
42 11 63 5 34 8 37 32 32 14 -2 47 -7 72 -10 25 -4 62 -8 81 -11 19 -3 67 -9
105 -14 39 -5 87 -12 108 -15 20 -3 37 -3 37 0 0 7 -309 408 -488 634 -15 19
-28 37 -30 42 -2 4 25 9 60 11 95 5 1569 0 1574 -5z"/>
</g>
</svg>
