<svg xmlns="http://www.w3.org/2000/svg" xmlns:xlink="http://www.w3.org/1999/xlink" viewBox="0 0 640 1500"><defs><style>.cls-1{fill:none;}.cls-2{clip-path:url(#clip-path);}.cls-3{fill:#f465a1;stroke:#f465a1;}.cls-10,.cls-11,.cls-12,.cls-13,.cls-14,.cls-15,.cls-16,.cls-17,.cls-18,.cls-19,.cls-20,.cls-21,.cls-22,.cls-23,.cls-24,.cls-25,.cls-26,.cls-27,.cls-28,.cls-29,.cls-3,.cls-30,.cls-31,.cls-32,.cls-33,.cls-34,.cls-35,.cls-36,.cls-37,.cls-38,.cls-39,.cls-4,.cls-40,.cls-41,.cls-42,.cls-43,.cls-44,.cls-45,.cls-46,.cls-47,.cls-48,.cls-49,.cls-5,.cls-50,.cls-6,.cls-7,.cls-8,.cls-9{stroke-width:1.51px;}.cls-4{fill:#f98aad;stroke:#f98aad;}.cls-5{fill:#fbaab8;stroke:#fbaab8;}.cls-6{fill:#a74b8e;stroke:#a74b8e;}.cls-7{fill:#fcbbc4;stroke:#fcbbc4;}.cls-8{fill:#febdcc;stroke:#febdcc;}.cls-9{fill:#e367a0;stroke:#e367a0;}.cls-10{fill:#ef85ac;stroke:#ef85ac;}.cls-11{fill:#fdd9d5;stroke:#fdd9d5;}.cls-12{fill:#b95e97;stroke:#b95e97;}.cls-13{fill:#fcb9bc;stroke:#fcb9bc;}.cls-14{fill:#af6999;stroke:#af6999;}.cls-15{fill:#ffdad8;stroke:#ffdad8;}.cls-16{fill:#ffcbd4;stroke:#ffcbd4;}.cls-17{fill:#c175a3;stroke:#c175a3;}.cls-18{fill:#fca9b9;stroke:#fca9b9;}.cls-19{fill:#a15290;stroke:#a15290;}.cls-20{fill:#ffc8d2;stroke:#ffc8d2;}.cls-21{fill:#ffe2dd;stroke:#ffe2dd;}.cls-22{fill:#db81aa;stroke:#db81aa;}.cls-23{fill:#a36395;stroke:#a36395;}.cls-24{fill:#feb8c8;stroke:#feb8c8;}.cls-25{fill:#e491b9;stroke:#e491b9;}.cls-26{fill:#ffd8d7;stroke:#ffd8d7;}.cls-27{fill:#fed7d7;stroke:#fed7d7;}.cls-28{fill:#feddd9;stroke:#feddd9;}.cls-29{fill:#fee0db;stroke:#fee0db;}.cls-30{fill:#ffbccc;stroke:#ffbccc;}.cls-31{fill:#a36a9b;stroke:#a36a9b;}.cls-32{fill:#ba7baa;stroke:#ba7baa;}.cls-33{fill:#ca88b4;stroke:#ca88b4;}.cls-34{fill:#ffb5ca;stroke:#ffb5ca;}.cls-35{fill:#ffebe7;stroke:#ffebe7;}.cls-36{fill:#f8a6c6;stroke:#f8a6c6;}.cls-37{fill:#ffb4ca;stroke:#ffb4ca;}.cls-38{fill:#ffeeea;stroke:#ffeeea;}.cls-39{fill:#a57cac;stroke:#a57cac;}.cls-40{fill:#a372a4;stroke:#a372a4;}.cls-41{fill:#a14e8f;stroke:#a14e8f;}.cls-42{fill:#ffd2d6;stroke:#ffd2d6;}.cls-43{fill:#fedfdb;stroke:#fedfdb;}.cls-44{fill:#fee0dc;stroke:#fee0dc;}.cls-45{fill:#fff1ed;stroke:#fff1ed;}.cls-46{fill:#fff4f0;stroke:#fff4f0;}.cls-47{fill:#ec9ac0;stroke:#ec9ac0;}.cls-48{fill:#fff7f3;stroke:#fff7f3;}.cls-49{fill:#a57dad;stroke:#a57dad;}.cls-50{fill:#a97fae;stroke:#a97fae;}</style><clipPath id="clip-path"><rect class="cls-1" y="1" width="640" height="1500"/></clipPath></defs><title>bg</title><g id="vertical"><g id="BG"><g class="cls-2"><path class="cls-3" d="M637.34,659.3l173,342.79,77-276.26Z"/><path class="cls-4" d="M751.34,606.63l-114,52.67,250,66.53Z"/><path class="cls-5" d="M751.34,606.63,480.34,530l157,129.35Z"/><path class="cls-6" d="M458.34,1169.33l283,137.67,69-304.91Z"/><path class="cls-7" d="M632.34,323l-152,207,271,76.68Z"/><path class="cls-8" d="M682.34,233.35l-50,89.63,119,283.65Z"/><path class="cls-9" d="M443.34,1081.55l367-79.46-173-342.79Z"/><path class="cls-10" d="M239.34,863.5l204,218,194-422.25Z"/><path class="cls-11" d="M317.34,169.6l-22,459.21,185-98.86Z"/><path class="cls-12" d="M443.34,1081.55l15,87.78,352-167.24Z"/><path class="cls-13" d="M480.34,530l-185,98.86,342,30.49Z"/><path class="cls-14" d="M443.34,1081.55l-73,72.07,88,15.71Z"/><path class="cls-15" d="M317.34,169.6,480.34,530l152-207Z"/><path class="cls-16" d="M682.34,233.35l-147-71.14,97,160.77Z"/><path class="cls-17" d="M228.34,955l142,198.65,73-72.07Z"/><path class="cls-18" d="M295.34,628.81l-56,234.69,398-204.2Z"/><path class="cls-19" d="M644.34,1488.1l97-181.1-283-137.67Z"/><path class="cls-20" d="M695.34,145.58l-160,16.63,147,71.14Z"/><path class="cls-21" d="M317.34,169.6l218-7.39-245-103.49Z"/><path class="cls-22" d="M239.34,863.5l-11,91.47,215,126.58Z"/><path class="cls-23" d="M256.34,1501l388-12.93-186-318.77Z"/><path class="cls-24" d="M295.34,628.81l-240,16.63,184,218.06Z"/><path class="cls-25" d="M239.34,863.5l-282,124.73,271-33.26Z"/><path class="cls-26" d="M535.34,162.21l-218,7.39L632.34,323Z"/><path class="cls-27" d="M290.34,58.72l245,103.49,160-16.63Z"/><path class="cls-28" d="M25.34,338.68l30,306.76,240-16.63Z"/><path class="cls-29" d="M25.34,338.68l-7,316,37-9.24Z"/><path class="cls-30" d="M55.34,645.44l-37,9.24,221,208.82Z"/><path class="cls-31" d="M370.34,1153.62,256.34,1501l202-331.7Z"/><path class="cls-32" d="M228.34,955l-123,215.28,265-16.63Z"/><path class="cls-33" d="M-42.66,988.23l148,182L228.34,955Z"/><path class="cls-34" d="M1337.34,6.06l-1047,52.66,405,86.86Z"/><path class="cls-35" d="M317.34,169.6l-292,169.08,270,290.13Z"/><path class="cls-36" d="M18.34,654.68l-61,333.55,282-124.73Z"/><path class="cls-37" d="M18.34,654.68l-165-1.85,104,335.4Z"/><path class="cls-38" d="M290.34,58.72l-265,280,292-169.08Z"/><path class="cls-39" d="M-60.66,1527.83l317-26.8-151-330.78Z"/><path class="cls-40" d="M105.34,1170.25l151,330.78,114-347.41Z"/><path class="cls-41" d="M644.34,1488.1l-388,12.93,749,87.78Z"/><path class="cls-42" d="M1337.34,6.06,33.34-39.22l257,97.94Z"/><path class="cls-43" d="M25.34,338.68l-172,314.15,165,1.85Z"/><path class="cls-44" d="M25.34,338.68l-269,289.21,97,24.94Z"/><path class="cls-45" d="M25.34,338.68l-232-93.32-37,382.53Z"/><path class="cls-46" d="M290.34,58.72l-257-97.94-8,377.9Z"/><path class="cls-47" d="M1720.34-47.53l-1687,8.31,1304,45.28Z"/><path class="cls-48" d="M33.34-39.22l-168,174.63,160,203.27Z"/><path class="cls-48" d="M-134.66,135.41l-72,110,232,93.32Z"/><path class="cls-49" d="M-200.66,1341.19l140,186.64,166-357.58Z"/><path class="cls-50" d="M-200.66,1341.19l306-170.94-148-182Z"/></g></g></g></svg>