<?xml version="1.0" encoding="UTF-8" standalone="no"?>
<svg
   xmlns:dc="http://purl.org/dc/elements/1.1/"
   xmlns:cc="http://creativecommons.org/ns#"
   xmlns:rdf="http://www.w3.org/1999/02/22-rdf-syntax-ns#"
   xmlns:svg="http://www.w3.org/2000/svg"
   xmlns="http://www.w3.org/2000/svg"
   xmlns:sodipodi="http://sodipodi.sourceforge.net/DTD/sodipodi-0.dtd"
   xmlns:inkscape="http://www.inkscape.org/namespaces/inkscape"
   viewBox="0 0 97.41 33.04"
   version="1.1"
   id="svg3791"
   sodipodi:docname="BLM Logo.svg"
   inkscape:version="0.92.4 (5da689c313, 2019-01-14)">
  <metadata
     id="metadata3795">
    <rdf:RDF>
      <cc:Work
         rdf:about="">
        <dc:format>image/svg+xml</dc:format>
        <dc:type
           rdf:resource="http://purl.org/dc/dcmitype/StillImage" />
        <dc:title></dc:title>
      </cc:Work>
    </rdf:RDF>
  </metadata>
  <sodipodi:namedview
     pagecolor="#ffffff"
     bordercolor="#666666"
     borderopacity="1"
     objecttolerance="10"
     gridtolerance="10"
     guidetolerance="10"
     inkscape:pageopacity="0"
     inkscape:pageshadow="2"
     inkscape:window-width="1920"
     inkscape:window-height="1017"
     id="namedview3793"
     showgrid="false"
     showguides="false"
     inkscape:zoom="4.7475"
     inkscape:cx="28.821241"
     inkscape:cy="4.93208"
     inkscape:window-x="-8"
     inkscape:window-y="-8"
     inkscape:window-maximized="1"
     inkscape:current-layer="svg3791">
    <inkscape:grid
       type="xygrid"
       id="grid3929" />
  </sodipodi:namedview>
  <defs
     id="defs3757">
    <style
       id="style3755">.cls-1{fill:#1d1d1b;}</style>
    <style
       id="style3887">.cls-1{fill:#1d1d1b;}</style>
  </defs>
  <g
     id="Ebene_2"
     data-name="Ebene 2">
    <g
       id="Ebene_1-2"
       data-name="Ebene 1">
      <polygon
         class="cls-1"
         points="0.02 18.09 0.02 33.04 9.35 33.04 9.35 30.5 3.29 30.5 3.29 18.09 0.02 18.09"
         id="polygon3759" />
      <path
         class="cls-1"
         d="M13.71,29.81c0-1.24,1.41-1.86,3.37-1.7a5.49,5.49,0,0,1-.24,2H20l0-3.93a4.15,4.15,0,0,0-.72-2.57,5,5,0,0,0-3.73-1.34,5.51,5.51,0,0,0-3.17.84,3,3,0,0,0-1.18,2.47h3a1.61,1.61,0,0,1,.22-.93,1.39,1.39,0,0,1,1.16-.58,1.42,1.42,0,0,1,1.37.87,4.18,4.18,0,0,1,.14,1.38,10.93,10.93,0,0,0-4.14.58,3.48,3.48,0,0,0-2.21,3.21h3a1.71,1.71,0,0,1,0-.31"
         id="path3761" />
      <path
         class="cls-1"
         d="M25.77,26.91a2.84,2.84,0,0,1,.37-1.59,1.89,1.89,0,0,1,1.59-.81,1.59,1.59,0,0,1,1.49.89,2.45,2.45,0,0,1,.17,1.14v3.58h3.13V27.39a8.86,8.86,0,0,0-.29-3.13,3.19,3.19,0,0,0-3.19-2,3.62,3.62,0,0,0-3.4,1.83l-.08-1.58H22.62c.06.73.06,1.87.06,1.91v5.67h3.09Z"
         id="path3763" />
      <path
         class="cls-1"
         d="M37.78,28c0-1.06.22-3.52,2.27-3.52,1.39,0,2.28,1.12,2.28,3.17a5.52,5.52,0,0,1-.5,2.46s0,0,0,0h3.5v-12H42.23v5.78a3.37,3.37,0,0,0-2.94-1.43c-2.74,0-4.62,2.15-4.62,5.61a7.36,7.36,0,0,0,.27,2.07h3.25A5.12,5.12,0,0,1,37.78,28"
         id="path3765" />
      <path
         class="cls-1"
         d="M52.54,24.32c1.78,0,1.82,1.87,1.82,2.34H50.57c.06-1.22.62-2.34,2-2.34m-2.07,4.27h7a7.73,7.73,0,0,0-.63-3.83,4.48,4.48,0,0,0-4.22-2.53,5.23,5.23,0,0,0-2.94.87,5.73,5.73,0,0,0-2.17,4.95,7.94,7.94,0,0,0,.25,2.07h2.9a4.55,4.55,0,0,1-.21-1.53"
         id="path3767" />
      <path
         class="cls-1"
         d="M68.11,29.75c0-1.43-.89-2.4-2.79-2.92l-1.89-.52c-.91-.25-1.43-.39-1.43-1.1s.62-1,1.45-1a1.29,1.29,0,0,1,1.49,1.24h2.8c-.08-2.09-1.83-3.08-4-3.08-2.71,0-4.57,1.24-4.57,3.27s1.8,2.65,2.65,2.9l1.9.51c1.12.31,1.41.66,1.44,1.1h2.89c0-.13,0-.25,0-.37"
         id="path3769" />
      <path
         class="cls-1"
         d="M5.71,12.48c1.52,0,2.55-.27,2.55-2s-1-2-2.55-2H3.21v4ZM5.71,6c1.35,0,2.1-.56,2.1-1.76S7.06,2.5,5.71,2.5H3.21V6ZM0,15V0H5.61C8.28-.15,11,1,11,3.89A3.48,3.48,0,0,1,8.38,7.16v0a3.82,3.82,0,0,1,3.3,3.89c0,3-3.73,4-6,3.88Z"
         id="path3771" />
      <path
         class="cls-1"
         d="M16.22,11.71a1.46,1.46,0,0,0,1.51,1.5c1.72,0,1.78-1.91,1.78-3.13-1.07,0-3.29,0-3.29,1.63m-2.5-4.2a2.83,2.83,0,0,1,1.4-2.59,6.23,6.23,0,0,1,3.07-.66c2.09,0,4.43.77,4.43,3.89v5.68A9.79,9.79,0,0,0,22.76,15H20a11.6,11.6,0,0,1-.11-1.39h0a3.41,3.41,0,0,1-3.19,1.7,3.07,3.07,0,0,1-3.4-3.15,3.6,3.6,0,0,1,2.22-3.29,9.8,9.8,0,0,1,4.05-.56v-1A1.32,1.32,0,0,0,18.09,6,1.41,1.41,0,0,0,16.7,7.51Z"
         id="path3773" />
      <path
         class="cls-1"
         d="M30.12,13.21c1.68,0,2.24-2,2.24-3.44s-.56-3.44-2.24-3.44c-2,0-2.24,1.84-2.24,3.44s.25,3.44,2.24,3.44M32.36,0h3.1V12.89c0,.69.06,1.39.11,2.08H32.46c0-.5-.08-1-.08-1.47h-.05a3.45,3.45,0,0,1-3.18,1.78c-3,0-4.48-2.84-4.48-5.51s1.64-5.51,4.87-5.51a3.5,3.5,0,0,1,2.77,1.51h0Z"
         id="path3775" />
      <path
         class="cls-1"
         d="M38,15h3.11V4.57H38ZM37.89,2.69h3.32V0H37.89Z"
         id="path3777" />
      <path
         class="cls-1"
         d="M49.13,7.35c0-.71-.71-1-1.41-1s-1.24.25-1.24.93c0,1.64,5.94.71,5.94,4.6,0,2.28-2.77,3.42-4.7,3.42-2.42,0-4.54-1-4.58-3.34H46c.06.81.79,1.27,1.7,1.27s1.49-.36,1.49-1.16-1.49-1.18-2.11-1.33c-2-.47-3.83-.91-3.83-3.33,0-2.18,2.63-3.13,4.45-3.13,2.19,0,4.06.79,4.2,3.09Z"
         id="path3779" />
      <path
         class="cls-1"
         d="M59.91,8.21c0-.84-.38-1.88-1.58-1.88S57,8.82,56.94,9.62c.09,1,.11,3.59,1.43,3.59s1.56-1.18,1.58-2h3c-.1,2.65-1.74,4.1-4.6,4.1-3.08,0-4.64-2.76-4.64-5.51s1.56-5.51,4.64-5.51c2.65,0,4.62,1.51,4.6,4Z"
         id="path3781" />
      <path
         class="cls-1"
         d="M65,15V0h3.08V5.79l0,0a3.55,3.55,0,0,1,3.19-1.57c1,0,3,.77,3.42,2.28a7.33,7.33,0,0,1,.2,1.66V15h-3.1V8.71c0-1.11-.33-2.38-1.87-2.38-1,0-1.82.87-1.86,2.38V15Z"
         id="path3783" />
      <path
         class="cls-1"
         d="M83.51,8.53c0-1.14-.31-2.2-1.82-2.2S80,7.39,79.91,8.53Zm-3.6,2.07c0,1.34.18,2.61,1.78,2.61a1.71,1.71,0,0,0,1.9-1.35h2.8c-.27,2.57-2.28,3.42-4.7,3.42-3.56,0-5-2-5-5.49,0-3.13,1.82-5.53,5-5.53a4.46,4.46,0,0,1,4.43,2.49,5.85,5.85,0,0,1,.52,1.86,16.15,16.15,0,0,1,.08,2Z"
         id="path3785" />
      <path
         class="cls-1"
         d="M94.11,7.35c0-.71-.7-1-1.41-1s-1.24.25-1.24.93c0,1.64,6,.71,6,4.6,0,2.28-2.78,3.42-4.71,3.42-2.42,0-4.53-1-4.57-3.34H91c.06.81.78,1.27,1.69,1.27s1.5-.36,1.5-1.16-1.5-1.18-2.12-1.33c-2-.47-3.83-.91-3.83-3.33,0-2.18,2.63-3.13,4.45-3.13,2.2,0,4.06.79,4.21,3.09Z"
         id="path3787" />
    </g>
  </g>
  <g
     data-name="Ebene 2"
     id="Ebene_2-9"
     transform="translate(0,37.910001)">
    <g
       data-name="Ebene 1"
       id="Ebene_1-2-5">
      <rect
         id="rect3891"
         height="7.9200001"
         width="3.1900001"
         y="7.0500002"
         x="13.73"
         class="cls-1"
         style="fill:#1d1d1b" />
      <polygon
         id="polygon3893"
         points="5.24,0 0,0 0,14.97 3,14.97 3,2.13 7,14.97 9.65,14.97 12.17,7.05 9.61,7.05 8.41,10.89 "
         class="cls-1"
         style="fill:#1d1d1b" />
      <path
         id="path3895"
         d="m 26.34,9.79 c 0,1.78 0,3.25 -2,3.25 -1.64,0 -1.64,-1.38 -1.64,-2.29 v -3.7 h -3.1 v 4 a 4.83,4.83 0 0 0 0.68,2.81 4,4 0 0 0 3.15,1.41 3.41,3.41 0 0 0 3.08,-1.66 L 26.65,15 h 3 c 0,-0.29 -0.06,-0.48 -0.08,-0.77 -0.02,-0.29 0,-0.53 -0.07,-2.79 V 7.05 h -3.16 z"
         class="cls-1"
         inkscape:connector-curvature="0"
         style="fill:#1d1d1b" />
      <path
         id="path3897"
         d="m 31.88,7.54 c 0,2.13 1.8,2.65 2.65,2.9 l 1.9,0.51 c 1.2,0.34 1.45,0.71 1.45,1.18 0,0.47 -0.52,1.25 -1.61,1.25 A 1.51,1.51 0 0 1 34.53,12 h -2.88 a 3,3 0 0 0 0.77,2 4.72,4.72 0 0 0 3.58,1.28 c 3.25,0 4.8,-1.8 4.8,-3.6 0,-1.43 -0.89,-2.4 -2.79,-2.92 L 36.12,8.24 C 35.21,7.99 34.69,7.85 34.69,7.14 a 0.29,0.29 0 0 1 0,-0.09 h -2.77 a 2.63,2.63 0 0 0 0,0.49"
         class="cls-1"
         inkscape:connector-curvature="0"
         style="fill:#1d1d1b" />
      <path
         id="path3899"
         d="m 49.17,8.59 h -3.79 a 3.1,3.1 0 0 1 0.46,-1.54 h -3 a 7.46,7.46 0 0 0 -0.5,2.95 5.65,5.65 0 0 0 1.35,4.08 5.17,5.17 0 0 0 3.68,1.3 5.1,5.1 0 0 0 3.63,-1.24 3.53,3.53 0 0 0 1,-2.28 h -2.76 a 1.72,1.72 0 0 1 -1.83,1.45 c -2.13,0 -2.13,-2.11 -2.13,-2.79 h 7 A 8.06,8.06 0 0 0 51.81,7.05 h -3 a 3.17,3.17 0 0 1 0.34,1.54"
         class="cls-1"
         inkscape:connector-curvature="0"
         style="fill:#1d1d1b" />
      <path
         id="path3901"
         d="m 61,9.79 c 0,1.78 0,3.25 -2,3.25 -1.63,0 -1.63,-1.38 -1.63,-2.29 v -3.7 h -3.05 v 4 a 4.83,4.83 0 0 0 0.68,2.78 4,4 0 0 0 3.15,1.41 3.43,3.43 0 0 0 3.09,-1.66 l 0.1,1.39 h 3 c 0,-0.29 -0.06,-0.48 -0.08,-0.77 -0.02,-0.29 0,-0.53 -0.06,-2.79 V 7.05 H 61 Z"
         class="cls-1"
         inkscape:connector-curvature="0"
         style="fill:#1d1d1b" />
      <path
         id="path3903"
         d="m 67,15 h 3.08 V 8.82 A 2.79,2.79 0 0 1 70.53,7.05 H 67 Z"
         class="cls-1"
         inkscape:connector-curvature="0"
         style="fill:#1d1d1b" />
      <path
         id="path3905"
         d="M 80.48,8.82 V 15 h 3.09 V 9.07 a 10.26,10.26 0 0 0 -0.13,-2 h -3.36 a 3,3 0 0 1 0.4,1.77"
         class="cls-1"
         inkscape:connector-curvature="0"
         style="fill:#1d1d1b" />
      <path
         id="path3907"
         d="M 73.75,8.76 V 15 h 3.09 V 9.73 a 4.54,4.54 0 0 1 0.52,-2.68 h -4 a 2.93,2.93 0 0 1 0.38,1.71"
         class="cls-1"
         inkscape:connector-curvature="0"
         style="fill:#1d1d1b" />
    </g>
  </g>
</svg>
