<svg xmlns="http://www.w3.org/2000/svg" viewBox="0 0 97.4 51.53"><defs><style>.cls-1{fill:#1d1d1b;}</style></defs><g id="Ebene_2" data-name="Ebene 2"><g id="Ebene_1-2" data-name="Ebene 1"><rect class="cls-1" x="13.73" y="43.21" width="3.19" height="7.92"/><polygon class="cls-1" points="0 36.17 0 51.14 3 51.14 3 38.3 7 51.14 9.65 51.14 12.16 43.22 9.61 43.22 8.41 47.06 5.24 36.17 0 36.17"/><path class="cls-1" d="M26.34,46c0,1.78,0,3.25-2,3.25-1.64,0-1.64-1.39-1.64-2.3v-3.7h-3.1v4A4.84,4.84,0,0,0,20.31,50a4,4,0,0,0,3.15,1.4,3.4,3.4,0,0,0,3.08-1.65l.11,1.38h3c0-.28-.06-.47-.08-.76s0-.54-.07-2.8V43.21H26.34Z"/><path class="cls-1" d="M31.88,43.7c0,2.14,1.8,2.65,2.65,2.9l1.9.52c1.2.33,1.45.7,1.45,1.18s-.52,1.24-1.61,1.24c-1.29,0-1.7-.76-1.74-1.43H31.65a3,3,0,0,0,.77,2A4.69,4.69,0,0,0,36,51.45c3.25,0,4.8-1.81,4.8-3.61,0-1.42-.89-2.4-2.79-2.92l-1.89-.51c-.91-.25-1.43-.4-1.43-1.1,0,0,0-.06,0-.1H31.92a2.63,2.63,0,0,0,0,.49"/><path class="cls-1" d="M49.17,44.76H45.38a3.14,3.14,0,0,1,.46-1.55h-3a7.52,7.52,0,0,0-.55,2.93,5.65,5.65,0,0,0,1.35,4.08,5.18,5.18,0,0,0,3.68,1.31A5.1,5.1,0,0,0,51,50.31,3.48,3.48,0,0,0,52,48H49.24a1.72,1.72,0,0,1-1.83,1.45c-2.13,0-2.13-2.11-2.13-2.8h7a8.09,8.09,0,0,0-.47-3.47h-3a3.21,3.21,0,0,1,.34,1.55"/><path class="cls-1" d="M61,46c0,1.78,0,3.25-2,3.25-1.63,0-1.63-1.39-1.63-2.3v-3.7H54.32v4A4.79,4.79,0,0,0,55,50a4,4,0,0,0,3.14,1.4,3.42,3.42,0,0,0,3.09-1.65l.1,1.38h3c0-.28-.06-.47-.08-.76s0-.54-.06-2.8V43.21H61Z"/><path class="cls-1" d="M67,51.14h3.09V45a2.8,2.8,0,0,1,.45-1.78H67Z"/><path class="cls-1" d="M80.48,45v6.14h3.09v-5.9a10.3,10.3,0,0,0-.13-2H80.08a3.07,3.07,0,0,1,.4,1.78"/><path class="cls-1" d="M73.75,44.92v6.22h3.09V45.9a4.65,4.65,0,0,1,.51-2.69h-4a2.94,2.94,0,0,1,.38,1.71"/><polygon class="cls-1" points="0.02 18.09 0.02 33.04 9.35 33.04 9.35 30.5 3.29 30.5 3.29 18.09 0.02 18.09"/><path class="cls-1" d="M13.71,29.81c0-1.24,1.41-1.86,3.37-1.7a5.49,5.49,0,0,1-.24,2H20l0-3.93a4.15,4.15,0,0,0-.72-2.57,5,5,0,0,0-3.73-1.34,5.51,5.51,0,0,0-3.17.84,3,3,0,0,0-1.18,2.47h3a1.61,1.61,0,0,1,.22-.93,1.39,1.39,0,0,1,1.16-.58,1.42,1.42,0,0,1,1.37.87,4.18,4.18,0,0,1,.14,1.38,10.93,10.93,0,0,0-4.14.58,3.48,3.48,0,0,0-2.21,3.21h3a1.71,1.71,0,0,1,0-.31"/><path class="cls-1" d="M25.77,26.91a2.84,2.84,0,0,1,.37-1.59,1.89,1.89,0,0,1,1.59-.81,1.59,1.59,0,0,1,1.49.89,2.45,2.45,0,0,1,.17,1.14v3.58h3.13V27.39a8.86,8.86,0,0,0-.29-3.13,3.19,3.19,0,0,0-3.19-2,3.62,3.62,0,0,0-3.4,1.83l-.08-1.58H22.62c.06.73.06,1.87.06,1.91v5.67h3.09Z"/><path class="cls-1" d="M37.77,28c0-1.06.23-3.52,2.28-3.52,1.39,0,2.28,1.12,2.28,3.17a5.52,5.52,0,0,1-.5,2.46s0,0,0,0h3.5v-12H42.23v5.78a3.37,3.37,0,0,0-2.94-1.43c-2.74,0-4.62,2.15-4.62,5.61a7.36,7.36,0,0,0,.27,2.07h3.25A5.12,5.12,0,0,1,37.77,28"/><path class="cls-1" d="M52.54,24.32c1.78,0,1.82,1.87,1.82,2.34H50.57c.06-1.22.62-2.34,2-2.34m-2.07,4.27h7a7.59,7.59,0,0,0-.62-3.83,4.48,4.48,0,0,0-4.22-2.53,5.23,5.23,0,0,0-2.94.87,5.73,5.73,0,0,0-2.17,4.95,7.94,7.94,0,0,0,.25,2.07h2.9a4.55,4.55,0,0,1-.21-1.53"/><path class="cls-1" d="M68.11,29.75c0-1.43-.89-2.4-2.79-2.92l-1.89-.52c-.91-.25-1.43-.39-1.43-1.1s.62-1,1.45-1a1.29,1.29,0,0,1,1.49,1.24h2.8c-.09-2.09-1.83-3.08-4-3.08-2.71,0-4.57,1.24-4.57,3.27s1.8,2.65,2.65,2.9l1.9.52c1.12.3,1.41.65,1.45,1.09h2.88c0-.13,0-.25,0-.37"/><path class="cls-1" d="M5.71,12.48c1.52,0,2.55-.27,2.55-2s-1-2-2.55-2H3.21v4ZM5.71,6c1.35,0,2.1-.56,2.1-1.76S7.06,2.5,5.71,2.5H3.21V6ZM0,15V0H5.61C8.28-.15,11,1,11,3.89A3.48,3.48,0,0,1,8.38,7.16v0a3.82,3.82,0,0,1,3.3,3.89c0,3-3.73,4-6,3.88Z"/><path class="cls-1" d="M16.22,11.71a1.46,1.46,0,0,0,1.51,1.5c1.72,0,1.78-1.91,1.78-3.13-1.07,0-3.29,0-3.29,1.63m-2.5-4.2a2.83,2.83,0,0,1,1.4-2.59,6.23,6.23,0,0,1,3.07-.66c2.09,0,4.43.77,4.43,3.89v5.68A9.51,9.51,0,0,0,22.76,15H20a11.6,11.6,0,0,1-.11-1.39h0a3.41,3.41,0,0,1-3.19,1.7,3.07,3.07,0,0,1-3.4-3.15,3.6,3.6,0,0,1,2.22-3.29,9.8,9.8,0,0,1,4.05-.56v-1A1.32,1.32,0,0,0,18.09,6,1.41,1.41,0,0,0,16.7,7.51Z"/><path class="cls-1" d="M30.12,13.21c1.68,0,2.24-2,2.24-3.44s-.56-3.44-2.24-3.44c-2,0-2.24,1.85-2.24,3.44s.25,3.44,2.24,3.44M32.36,0h3.1V12.9c0,.68.06,1.38.11,2.07H32.46c0-.5-.08-1-.08-1.47h0a3.48,3.48,0,0,1-3.19,1.78c-3,0-4.47-2.84-4.47-5.51s1.63-5.51,4.86-5.51a3.5,3.5,0,0,1,2.77,1.51h0Z"/><path class="cls-1" d="M38,15h3.1V4.57H38ZM37.89,2.69h3.32V0H37.89Z"/><path class="cls-1" d="M49.13,7.35c0-.71-.71-1-1.41-1s-1.24.25-1.24.93c0,1.64,5.94.71,5.94,4.6,0,2.28-2.77,3.42-4.7,3.42-2.42,0-4.53-1-4.58-3.34H46c.06.81.79,1.27,1.7,1.27s1.49-.36,1.49-1.16-1.49-1.18-2.11-1.33c-2-.47-3.83-.91-3.83-3.33,0-2.18,2.63-3.13,4.45-3.13,2.19,0,4.06.79,4.2,3.09Z"/><path class="cls-1" d="M59.9,8.22c0-.85-.37-1.89-1.57-1.89S57,8.82,56.94,9.62c.09,1,.11,3.59,1.43,3.59s1.56-1.18,1.58-2h3c-.1,2.65-1.74,4.1-4.6,4.1-3.08,0-4.64-2.76-4.64-5.51s1.56-5.51,4.64-5.51c2.65,0,4.62,1.51,4.6,4Z"/><path class="cls-1" d="M65,15V0h3.08V5.79l0,0a3.54,3.54,0,0,1,3.19-1.58c1,0,3,.77,3.42,2.28a7.33,7.33,0,0,1,.2,1.66V15h-3.1V8.71c0-1.11-.33-2.38-1.87-2.38-1,0-1.82.87-1.86,2.38V15Z"/><path class="cls-1" d="M83.51,8.53c0-1.14-.31-2.2-1.82-2.2S80,7.39,79.91,8.53Zm-3.6,2.07c0,1.34.18,2.61,1.78,2.61a1.71,1.71,0,0,0,1.9-1.35h2.8c-.27,2.57-2.28,3.42-4.7,3.42-3.57,0-5-2-5-5.49,0-3.13,1.82-5.53,5-5.53a4.46,4.46,0,0,1,4.43,2.49,5.58,5.58,0,0,1,.51,1.86,14.36,14.36,0,0,1,.09,2Z"/><path class="cls-1" d="M94.11,7.35c0-.71-.7-1-1.41-1s-1.24.25-1.24.93c0,1.64,5.94.71,5.94,4.6,0,2.28-2.77,3.42-4.7,3.42-2.42,0-4.53-1-4.57-3.34H91c.06.81.78,1.27,1.69,1.27s1.49-.36,1.49-1.16-1.49-1.18-2.11-1.33c-2-.47-3.83-.91-3.83-3.33,0-2.18,2.63-3.13,4.45-3.13,2.2,0,4.06.79,4.21,3.09Z"/></g></g></svg>