<svg xmlns="http://www.w3.org/2000/svg" viewBox="0 0 100 100"><title>icon-gift</title><g id="vertical"><g id="R-preview"><path d="M90,20.1H80.88A15,15,0,0,0,66.8.1h0a15,15,0,0,0-3.89.5,14.84,14.84,0,0,0-7.78,5h0L50,12.22,45,5.6h0A14.91,14.91,0,0,0,33.3,0h0A15,15,0,0,0,18.78,11.06a14.76,14.76,0,0,0,.39,9H10a10,10,0,0,0-10,10V90a10,10,0,0,0,10,10H90a10,10,0,0,0,10-10V30.09A10,10,0,0,0,90,20.1ZM65.47,10.2a5.26,5.26,0,0,1,1.3-.16A5,5,0,0,1,68,19.87a4.89,4.89,0,0,1-1.3.17l-.66,0H56.55l6.33-8.19A5,5,0,0,1,65.47,10.2ZM33.24,19.94a4.91,4.91,0,0,1-1.3-.18,5,5,0,0,1,1.33-9.82,5.26,5.26,0,0,1,1.29.17,5,5,0,0,1,2.58,1.68l6.3,8.27H35.19C34.28,20,33.54,19.94,33.24,19.94ZM10,90.06v-60H36.19l-5.53,7.16-3.06,4,7-.9.9,7,3.06-4,6.5-8.41-.17,55.14Zm80,0H54.91l.16-54.74,6.17,8.09,3,4,1-7,7,.95-3-4-5.56-7.29H90Z"/></g></g></svg>