<svg id="working" xmlns="http://www.w3.org/2000/svg" viewBox="0 0 100 75"><defs><style>.cls-1{fill:#fff;}</style></defs><title>icon-camera</title><g id="audio_controls" data-name="audio controls"><path class="cls-1" d="M92.06,12.5H77.86a4.22,4.22,0,0,1-3.12-1.41C67.34,2.81,64.56,0,61.54,0H39.27c-3.05,0-6,2.81-13.46,11.12a4.17,4.17,0,0,1-3.1,1.38H21.64V10.42a2.09,2.09,0,0,0-2.08-2.09H12.79a2.1,2.1,0,0,0-2.09,2.09V12.5H8.75c-4.61,0-8.75,3.44-8.75,8V66.33A9,9,0,0,0,8.72,75H92.06c4.58,0,7.94-4.11,7.94-8.67V20.49A7.76,7.76,0,0,0,92.06,12.5ZM51,64.69a22.26,22.26,0,1,1,21.2-21.2A22.28,22.28,0,0,1,51,64.69ZM75,27.6a3.39,3.39,0,1,1,3.39-3.38A3.38,3.38,0,0,1,75,27.6Z"/></g></svg>