<svg id="working" xmlns="http://www.w3.org/2000/svg" viewBox="0 0 52.88 100"><defs><style>.cls-1{fill:#fff;}</style></defs><title>icon-microphone</title><g id="audio_controls" data-name="audio controls"><path class="cls-1" d="M26.44,69.23A15.43,15.43,0,0,0,41.83,53.85V15.38a15.39,15.39,0,0,0-30.77,0V53.85A15.42,15.42,0,0,0,26.44,69.23Z"/><path class="cls-1" d="M49.52,34.62A3.38,3.38,0,0,0,46.15,38V54.57a19.71,19.71,0,0,1-39.42,0V38A3.37,3.37,0,0,0,0,38V54.57A26.47,26.47,0,0,0,23.08,80.79V93.27H14.42a3.37,3.37,0,0,0,0,6.73h24a3.37,3.37,0,1,0,0-6.73H29.81V80.79A26.47,26.47,0,0,0,52.88,54.57V38A3.37,3.37,0,0,0,49.52,34.62Z"/></g></svg>